# xmcd
#
# Track frame offsets:
#   150
#   8674
#   24930
#   42884
#   58801
#   79117
#   104539
#   127415
#   144692
#   164391
#   183273
#   192492
#   211276
#   231362
#
# Disc length: 3268 seconds
#
# Revision: 0
# Processed by: cddbd v1.5.1PL2 Copyright (c) Steve Scherf et al.
# Submitted via: GXTranscoder 2.0.1939
#
DISCID=c60cc20e
DTITLE=Alicia Keys - Songs in A minor
DYEAR=1900
DGENRE=Blues
TTITLE0=Piano and I
TTITLE1=Girlfriend
TTITLE2=How Come You Don't Call Me
TTITLE3=Fallin'
TTITLE4=Troubles
TTITLE5=Rock Wit U
TTITLE6=A Woman's Worth
TTITLE7=Jane Doe
TTITLE8=Goodbye
TTITLE9=The Life
TTITLE10=Mr. Man
TTITLE11=Never Felt This
TTITLE12=Butterflyz
TTITLE13=Why Do I Feel So Sad
EXTD=
EXTT0=
EXTT1=
EXTT2=
EXTT3=
EXTT4=
EXTT5=
EXTT6=
EXTT7=
EXTT8=
EXTT9=
EXTT10=
EXTT11=
EXTT12=
EXTT13=
PLAYORDER=
